<svg id="visual" viewBox="0 0 1920 1080" width="1920" height="1080" xmlns="http://www.w3.org/2000/svg" xmlns:xlink="http://www.w3.org/1999/xlink" version="1.1"><path d="M0 603L53.3 590.5C106.7 578 213.3 553 320 558.7C426.7 564.3 533.3 600.7 640 598.7C746.7 596.7 853.3 556.3 960 536.3C1066.7 516.3 1173.3 516.7 1280 542.5C1386.7 568.3 1493.3 619.7 1600 615.7C1706.7 611.7 1813.3 552.3 1866.7 522.7L1920 493L1920 1081L1866.7 1081C1813.3 1081 1706.7 1081 1600 1081C1493.3 1081 1386.7 1081 1280 1081C1173.3 1081 1066.7 1081 960 1081C853.3 1081 746.7 1081 640 1081C533.3 1081 426.7 1081 320 1081C213.3 1081 106.7 1081 53.3 1081L0 1081Z" fill="#F7770F" stroke-linecap="round" stroke-linejoin="miter"></path></svg>